<svg xmlns="http://www.w3.org/2000/svg" fill="none" viewBox="0 0 394 80">
  <path fill="#000" fill-rule="evenodd" d="M262 0h68.5v12.7h-27.2v66.7h-13.6V12.7H262V0ZM149 0v12.7H94v20.4h44.3v12.6H94v21h55v12.6H80.5V0h68.7zm-53.3 64.3c0 6.2-4.6 11.1-11.3 11.1-6.8 0-11.5-5-11.5-11.3V0H60.2v54.5c0 13.2 10.4 23.3 23.7 23.3 13.3 0 24.1-10.3 24.1-23.6V0h-12.3v64.3zM117.5 0h12.8v79.4h-12.8V0zm-76.5 0v12.7h27.2v66.7h13.6V12.7H109V0H41zm239.3 0h-12.6v79.4h12.6V0zm-52.3 12.7v66.7h-13.6V12.7h-21v-12.7h55.7v12.7h-21.1z" clip-rule="evenodd"/>
</svg>
